<?xml version="1.0" encoding="utf-8"?>
<!-- Generator: Adobe Illustrator 15.1.0, SVG Export Plug-In . SVG Version: 6.00 Build 0)  -->
<!DOCTYPE svg PUBLIC "-//W3C//DTD SVG 1.1//EN" "http://www.w3.org/Graphics/SVG/1.1/DTD/svg11.dtd">
<svg version="1.1" id="Layer_1" xmlns="http://www.w3.org/2000/svg" xmlns:xlink="http://www.w3.org/1999/xlink" x="0px" y="0px"
	 width="100px" height="100px" viewBox="0 0 100 100" enable-background="new 0 0 100 100" xml:space="preserve">
<path fill="#FFFFFF" d="M83.945,39.279c-2.741,0-5.241,1.032-7.138,2.725l0.019-17.018h-0.053c0-0.986-0.8-1.786-1.787-1.786H57.988
	c1.697-1.897,2.732-4.401,2.732-7.147c0-5.921-4.801-10.72-10.721-10.72c-5.921,0-10.72,4.799-10.72,10.72
	c0,2.746,1.034,5.25,2.732,7.147H24.961c-0.987,0-1.786,0.8-1.786,1.786v17.003c-1.894-1.684-4.388-2.71-7.121-2.71
	c-5.921,0-10.72,4.8-10.72,10.721c0,5.919,4.799,10.72,10.72,10.72c2.733,0,5.227-1.026,7.121-2.71v17.003
	c0,0.985,0.799,1.786,1.786,1.786h17.051c-1.698,1.896-2.732,4.4-2.732,7.146c0,5.922,4.799,10.721,10.72,10.721
	c5.92,0,10.721-4.799,10.721-10.721c0-2.745-1.035-5.249-2.732-7.146h16.998c0.987,0,1.787-0.801,1.787-1.786l0.019-17.033
	c1.897,1.703,4.406,2.74,7.153,2.74c5.922,0,10.722-4.801,10.722-10.72C94.667,44.08,89.867,39.279,83.945,39.279 M42.854,16.054
	c0-3.947,3.2-7.147,7.146-7.147c3.945,0,7.146,3.2,7.146,7.147c0,3.947-3.201,7.147-7.146,7.147
	C46.054,23.201,42.854,20,42.854,16.054 M16.054,57.146c-3.947,0-7.147-3.2-7.147-7.146c0-3.947,3.2-7.147,7.147-7.147
	c3.749,0,6.822,2.888,7.121,6.561v1.172C22.876,54.258,19.803,57.146,16.054,57.146 M57.146,83.945c0,3.948-3.201,7.148-7.146,7.148
	c-3.946,0-7.146-3.2-7.146-7.148c0-3.944,3.198-7.146,7.145-7.146h0.002C53.948,76.8,57.146,80.001,57.146,83.945 M73.201,73.228
	H26.748V50.709c0.014-0.235,0.025-0.471,0.025-0.709c0-0.239-0.011-0.475-0.025-0.709V26.772h46.454V73.228z M83.945,57.146
	c-3.944,0-7.146-3.2-7.146-7.146c0-3.947,3.201-7.147,7.146-7.147c3.948,0,7.147,3.2,7.147,7.147
	C91.093,53.946,87.894,57.146,83.945,57.146"/>
</svg>
